<?xml version="1.0" encoding="UTF-8"?>
<svg id="Layer_5" data-name="Layer 5" xmlns="http://www.w3.org/2000/svg" viewBox="0 0 498 348.44">
  <defs>
    <style>
      .cls-1, .cls-2, .cls-3 {
        fill: #6a7c87;
      }

      .cls-2 {
        stroke: #fff;
      }

      .cls-2, .cls-3 {
        stroke-miterlimit: 10;
        stroke-width: 5px;
      }

      .cls-3 {
        stroke: #fafbfc;
      }

      .cls-4 {
        fill: #c3cace;
      }

      .cls-5 {
        fill: #112d40;
      }
    </style>
  </defs>
  <rect class="cls-5" width="498" height="348.44"/>
  <path class="cls-2" d="m238.77,170.41h167.36c0,91.77-75.49,167.36-167.36,167.36s-167.36-75.59-167.36-167.36h167.36Z"/>
  <path class="cls-3" d="m407.94,337.68h-171.65v-18.47c0-52.08,42.17-94.25,94.25-94.25h77.49v112.72h-.1Z"/>
  <path class="cls-2" d="m238.77,178.31h167.36c0-91.77-75.49-167.36-167.36-167.36S71.4,86.54,71.4,178.31h167.36Z"/>
  <rect class="cls-5" y="121" width="498" height="106.34"/>
  <g>
    <path class="cls-4" d="m8.09,144.61h15.8l21.13,50.36h.86l21.13-50.36h15.8v69.5h-12.38v-47.7h-.67l-19.71,47.51h-9.23l-19.71-47.6h-.67v47.79h-12.38v-69.5h0Z"/>
    <path class="cls-4" d="m96.72,214.11v-69.5h46.27v10.57h-33.42v18.85h31.04v10.57h-31.04v18.95h33.7v10.57h-46.55Z"/>
    <path class="cls-4" d="m153.08,155.18v-10.57h56.74v10.57h-21.99v58.93h-12.76v-58.93h-21.99Z"/>
    <path class="cls-4" d="m281.7,168.03h-13.04c-.38-2.09-1.05-3.9-2.09-5.52-.95-1.62-2.19-2.95-3.71-4.09s-3.14-2-5.05-2.57c-1.9-.57-3.9-.86-6.09-.86-3.9,0-7.33.95-10.28,2.86-2.95,1.9-5.33,4.66-7.04,8.28-1.71,3.62-2.57,8.09-2.57,13.33s.86,9.81,2.57,13.42c1.71,3.62,4,6.38,7.04,8.19,2.95,1.81,6.38,2.76,10.28,2.76,2.09,0,4.09-.29,6-.86s3.52-1.33,5.05-2.48c1.52-1.05,2.76-2.38,3.81-4s1.71-3.43,2.09-5.43l13.04.1c-.48,3.33-1.52,6.38-3.14,9.33s-3.71,5.43-6.28,7.62-5.62,3.9-9.14,5.14-7.33,1.81-11.61,1.81c-6.28,0-11.81-1.43-16.76-4.28s-8.76-6.95-11.61-12.28-4.28-11.71-4.28-19.23,1.43-13.9,4.28-19.23c2.86-5.33,6.76-9.42,11.61-12.19,4.95-2.86,10.47-4.28,16.66-4.28,4,0,7.62.57,11.04,1.62,3.43,1.05,6.47,2.67,9.14,4.76s4.86,4.66,6.57,7.71,3.05,6.57,3.52,10.38Z"/>
    <path class="cls-4" d="m293.6,214.11v-69.5h12.85v29.42h32.94v-29.42h12.95v69.5h-12.95v-29.51h-32.94v29.51h-12.85Z"/>
    <path class="cls-4" d="m375.48,214.11h-13.71l25.04-69.5h15.9l25.13,69.5h-13.8l-19.04-55.22h-.57l-18.95,55.22Zm.48-27.23h37.51v10.09h-37.51v-10.09Z"/>
    <path class="cls-4" d="m434.12,155.18v-10.57h56.74v10.57h-21.99v58.93h-12.76v-58.93h-21.99Z"/>
  </g>
  <path class="cls-1" d="m362.91,335.11h-128.14c-2.09,0-3.71-1.71-3.71-3.71v-100.34c0-2.09,1.71-3.71,3.71-3.71h128.24c2.09,0,3.71,1.71,3.71,3.71v100.34c-.1,2-1.71,3.71-3.81,3.71Z"/>
</svg>