<?xml version="1.0" encoding="utf-8"?>
<!-- Generator: Adobe Illustrator 27.2.0, SVG Export Plug-In . SVG Version: 6.00 Build 0)  -->
<svg version="1.1" id="Layer_5" xmlns="http://www.w3.org/2000/svg" xmlns:xlink="http://www.w3.org/1999/xlink" x="0px" y="0px"
	 viewBox="0 0 498 322.6" style="enable-background:new 0 0 498 322.6;" xml:space="preserve">
<style type="text/css">
	.st0{fill:none;stroke:#112D40;stroke-miterlimit:10;}
	.st1{fill:#6A7C87;stroke:#FFFFFF;stroke-width:5;stroke-miterlimit:10;}
	.st2{fill:#6A7C87;stroke:#FAFBFC;stroke-width:5;stroke-miterlimit:10;}
	.st3{fill:#112D40;}
	.st4{fill:#C3CACE;}
	.st5{fill:#6A7C87;}
</style>
<rect y="-12.6" class="st0" width="498" height="348.4"/>
<path class="st1" d="M238.8,157.9h167.4c0,91.8-75.5,167.4-167.4,167.4S71.4,249.6,71.4,157.9L238.8,157.9L238.8,157.9z"/>
<path class="st2" d="M407.9,325.1H236.3v-18.5c0-52.1,42.2-94.2,94.2-94.2H408L407.9,325.1L407.9,325.1L407.9,325.1z"/>
<path class="st1" d="M238.8,165.8h167.4C406.1,74,330.6-1.6,238.8-1.6S71.4,74,71.4,165.8H238.8L238.8,165.8z"/>
<rect y="108.4" class="st3" width="498" height="106.3"/>
<g>
	<path class="st4" d="M8.1,132.1h15.8L45,182.4h0.9L67,132.1h15.8v69.5H70.4v-47.7h-0.7l-19.7,47.5h-9.2l-19.7-47.6h-0.7v47.8H8.1
		L8.1,132.1L8.1,132.1L8.1,132.1z"/>
	<path class="st4" d="M96.7,201.6v-69.5H143v10.6h-33.4v18.9h31V172h-31V191h33.7v10.6L96.7,201.6L96.7,201.6z"/>
	<path class="st4" d="M153.1,142.6v-10.6h56.7v10.6h-22v58.9h-12.8v-58.9H153.1z"/>
	<path class="st4" d="M281.7,155.5h-13c-0.4-2.1-1-3.9-2.1-5.5c-1-1.6-2.2-2.9-3.7-4.1s-3.1-2-5-2.6c-1.9-0.6-3.9-0.9-6.1-0.9
		c-3.9,0-7.3,0.9-10.3,2.9c-2.9,1.9-5.3,4.7-7,8.3c-1.7,3.6-2.6,8.1-2.6,13.3s0.9,9.8,2.6,13.4c1.7,3.6,4,6.4,7,8.2
		c2.9,1.8,6.4,2.8,10.3,2.8c2.1,0,4.1-0.3,6-0.9s3.5-1.3,5-2.5c1.5-1.1,2.8-2.4,3.8-4s1.7-3.4,2.1-5.4l13,0.1
		c-0.5,3.3-1.5,6.4-3.1,9.3s-3.7,5.4-6.3,7.6s-5.6,3.9-9.1,5.1s-7.3,1.8-11.6,1.8c-6.3,0-11.8-1.4-16.8-4.3s-8.8-6.9-11.6-12.3
		s-4.3-11.7-4.3-19.2s1.4-13.9,4.3-19.2c2.9-5.3,6.8-9.4,11.6-12.2c4.9-2.9,10.5-4.3,16.7-4.3c4,0,7.6,0.6,11,1.6
		c3.4,1.1,6.5,2.7,9.1,4.8s4.9,4.7,6.6,7.7S281.2,151.7,281.7,155.5L281.7,155.5z"/>
	<path class="st4" d="M293.6,201.6v-69.5h12.9v29.4h32.9v-29.4h13v69.5h-13V172h-32.9v29.5H293.6z"/>
	<path class="st4" d="M375.5,201.6h-13.7l25-69.5h15.9l25.1,69.5H414l-19-55.2h-0.6L375.5,201.6z M376,174.3h37.5v10.1H376V174.3z"
		/>
	<path class="st4" d="M434.1,142.6v-10.6h56.7v10.6h-22v58.9h-12.8v-58.9H434.1z"/>
</g>
<path class="st5" d="M362.9,322.6H234.8c-2.1,0-3.7-1.7-3.7-3.7V218.5c0-2.1,1.7-3.7,3.7-3.7H363c2.1,0,3.7,1.7,3.7,3.7v100.3
	C366.6,320.8,365,322.6,362.9,322.6z"/>
</svg>
